<?xml version="1.0" encoding="UTF-8"?>
<svg xmlns="http://www.w3.org/2000/svg" viewBox="0 0 887.72 678.32">
  <defs>
    <style>
      .cls-1 {
        fill: #fff;
      }

      .cls-2 {
        fill: #2563eb;
      }
    </style>
  </defs>
  <g id="_Слой_4" data-name="Слой_4">
    <g id="_Слой_6" data-name="Слой_6">
      <g>
        <path class="cls-2" d="M565.09,542.84c-25.51-2.28-32.58-4.87-32.68-7.15-.18-4.16,22.89-6.14,23.49-13.28.51-6.03-15.72-7.14-24.51-17.36-15.57-18.11,6.2-48.6,11.23-91.91,6.07-52.23-19.19-62.7-12.24-96.72,9.46-46.29,56.17-39.58,126.38-98.84,67.34-56.84,113.03-130.78,156.56-206.06C815.74,7.33,818.21,3.17,822.95,0c-1.79,84.64-30.23,158.28-91.3,219.46,48.12-24.34,90.41-56.27,130.27-92.33-17.02,51.53-54.9,86.63-94.95,120.08,1.09,1.94,2.17,3.89,3.26,5.83,19.52-8.18,39.46-15.5,58.44-24.77,19.74-9.65,38.56-21.2,59.06-30.64-16.18,27.27-38.14,49.52-64.61,66.54-26.57,17.08-54.79,31.58-81.99,49.26,50.12,4.43,96.72-12.75,144.4-27.19-6.56,17.58-40.81,46.39-77.87,60.28-31.28,11.73-64.39,18.59-97.9,27.94h107.52c.6,1.25,1.2,2.51,1.8,3.76-22.71,8.94-44.94,19.51-68.26,26.37-23.83,7.01-48.74,10.38-73.17,15.35-.2,1.68-.4,3.36-.6,5.05,29.09,2.25,58.17,4.51,91.13,7.06-11.41,4.38-19.9,8.43-28.82,10.93-53.01,14.83-105.69,13.66-157.87-4.22-3.49-1.2-6.92-3.21-10.46-3.43-3.77-.24-7.64,1.19-11.47,1.88,8.29-2.23,20.76-4.17,33.6.44,15.1,5.43,19.6,15.93,32.2,24.51,9.83,6.7,26.22,13.34,54.13,10.21-10.9,7.4-34.24,20.96-66.16,22.55-18.06.9-38.88-2.73-57.61-10.31-8.49-3.44-16.13-8.99-24.6-12.52-3.81-1.59-8.7-.61-13.1-.8,1.07,4.32.69,10.68,3.45,12.65,25.56,18.25,58.67,26.58,60.42,40.71.49,3.94-2.32,9.8-16.79,18.18Z"/>
        <path class="cls-2" d="M352.78,413.2c-.46-8.2-.67-19.24.32-32.26.23-3.08.71-13.19,3.72-28.04,3.59-17.72,8.1-27.34,8.47-36.42,1.44-36.2-63.82-43.26-129.1-98.84C160.36,153.08,81.57,20.55,76.23,11.58c-2.65-4.45-7.22-12.34-9.83-11.52-7.16,2.26-1.72,70.77,29.66,131.38,28.51,55.06,67.89,83.26,63.62,88.08-4.31,4.87-45.02-23.06-69.71-41.77-41.41-31.38-59.76-53.48-63.38-50.56-4.09,3.3,10.25,38.88,39.68,66.82,27.37,25.98,60.27,38.21,57.32,53.26-.13.65-.74,3.76-3.33,5.83-8.86,7.08-29.46-7.04-59.7-24.77C29.08,209.87,2.82,194.47.23,197.68c-3.14,3.89,26.07,37.93,66.01,66.54,46.9,33.6,85.53,43.2,83.76,49.26-1.79,6.13-42.62.82-74.7-6.52-47.01-10.75-70.42-24.76-72.82-20.67-3.14,5.35,31.76,38.35,79.55,60.28,49.26,22.61,100.03,27.87,100.02,27.94-.02.1-92.99-18.35-109.85,0-1.66,1.8-1.83,3.15-1.84,3.76-.27,10.72,40.07,21.76,69.73,26.37,40.83,6.34,69.42,1.74,74.75,15.35.53,1.34,1.21,3.09.61,5.05-5.18,17.02-92.13,1.35-93.09,7.06-.55,3.26,27.44,10.42,29.45,10.93,19.33,4.9,48.56,12.06,87.49,9.91,29.83-1.65,64.24-8.7,73.8-14.13.82-.46,4.92-2.88,10.69-3.43,6.31-.6,11.8,1.3,11.72,1.88-.13,1.03-16.98-4.85-34.32.44-16.37,4.99-17.39,15.12-32.89,24.51-26.47,16.04-54.3,5.19-55.3,10.21-1.18,5.95,31.04,24.38,67.59,22.55,20.6-1.03,36.86-8.22,47.08-13.93"/>
      </g>
      <g>
        <path class="cls-1" d="M553.54,540.84c-21.79-1.91-27.83-4.08-27.92-5.99-.15-3.49,19.55-5.15,20.06-11.13.43-5.05-13.43-5.99-20.94-14.56-13.3-15.19,5.29-40.74,9.6-77.06,5.19-43.78-16.39-52.57-10.45-81.09,8.08-38.8,47.98-33.18,107.95-82.87,57.52-47.66,96.55-109.65,133.74-172.76,2.07-3.51,4.18-7,8.22-9.65-1.53,70.96-25.82,132.7-77.99,183.99,41.1-20.41,77.23-47.17,111.28-77.41-14.54,43.2-46.9,72.63-81.1,100.67.93,1.63,1.85,3.26,2.78,4.89,16.67-6.86,33.7-12.99,49.92-20.77,16.86-8.09,32.94-17.77,50.45-25.69-13.82,22.86-32.58,41.52-55.19,55.78-22.69,14.32-46.8,26.48-70.04,41.3,42.82,3.71,82.62-10.69,123.35-22.8-5.6,14.74-34.86,38.89-66.51,50.54-26.72,9.83-55,15.58-83.63,23.43h91.85c.51,1.05,1.03,2.1,1.54,3.15-19.4,7.5-38.39,16.35-58.31,22.11-20.36,5.88-41.63,8.71-62.5,12.87-.17,1.41-.34,2.82-.51,4.23,24.84,1.89,49.69,3.78,77.84,5.92-9.75,3.67-17,7.07-24.62,9.16-45.28,12.43-90.28,11.45-134.86-3.54-2.98-1-5.91-2.69-8.94-2.88-3.22-.2-6.53.99-9.8,1.58,7.08-1.87,17.73-3.5,28.7.37,12.9,4.55,16.75,13.35,27.51,20.55,8.4,5.62,22.4,11.18,46.24,8.56-9.31,6.2-29.25,17.57-56.51,18.91-15.42.75-33.21-2.29-49.21-8.65-7.26-2.88-13.78-7.53-21.01-10.49-3.26-1.33-7.43-.51-11.19-.67.92,3.63.59,8.95,2.95,10.6,21.83,15.3,50.12,22.28,51.61,34.13.42,3.31-1.98,8.22-14.34,15.24Z"/>
        <path class="cls-1" d="M345.34,382.84c.99-6.3,3.01-15.62,7.66-26.04,5.74-12.89,10.39-16.03,11.49-20.68,4.19-17.69-47.95-35.73-91.9-67.92,0,0-59.56-45.91-136.08-171.85-.23-.39-.42-.69-.55-.91-2.26-3.73-6.17-10.34-8.4-9.65-6.12,1.89-1.47,59.33,25.33,110.15,24.35,46.16,57.99,69.8,54.34,73.85-3.68,4.08-38.45-19.34-59.54-35.02-35.38-26.31-51.04-44.84-54.14-42.39-3.49,2.77,8.76,32.6,33.89,56.02,23.38,21.78,51.48,32.03,48.96,44.65-.11.55-.63,3.15-2.84,4.89-7.56,5.94-25.16-5.9-50.99-20.77-26.89-15.48-49.33-28.39-51.54-25.69-2.68,3.26,22.27,31.8,56.38,55.78,40.06,28.17,73.06,36.22,71.55,41.3-1.53,5.14-36.41.68-63.81-5.46-40.15-9.01-60.15-20.76-62.21-17.33-2.69,4.49,27.13,32.15,67.95,50.54,42.08,18.95,85.45,23.37,85.43,23.43-.02.08-79.43-15.38-93.83,0-1.42,1.51-1.56,2.64-1.57,3.15-.23,8.99,34.23,18.24,59.56,22.11,34.87,5.31,59.3,1.46,63.85,12.87.45,1.13,1.03,2.59.52,4.23-4.42,14.27-78.7,1.13-79.52,5.92-.47,2.73,23.44,8.74,25.15,9.16,19.38,4.82,43.05,10.59,74.73,8.31,31.84-2.29,59.21-11.77,58.98-13-.08-.42-3.45-.23-6.12.22-13.94,2.37-19.85,13.79-28.1,20.55-18.49,15.15-46.63,5.13-47.23,8.56-.38,2.15,10.51,7.06,57.73,18.91"/>
      </g>
    </g>
  </g>
  <g id="_Слой_2" data-name="Слой_2">
    <polyline class="cls-2" points="182.65 678.32 272.65 678.32 486.7 4.33 411.65 4.32"/>
    <polyline class="cls-2" points="383.12 398.16 361.34 465.9 593.14 466.32 575.14 398.32"/>
    <polyline class="cls-2" points="593.14 72.27 483.3 72.07 505.09 4.32 593.14 4.32"/>
    <polyline class="cls-2" points="504.46 6.16 504.46 678.32 593.14 678.32 593.14 6.16"/>
  </g>
</svg>